<svg xmlns="http://www.w3.org/2000/svg" viewBox="0 0 200 200">
  <defs>
    <linearGradient id="bg6" x1="0%" y1="0%" x2="100%" y2="100%">
      <stop offset="0%" style="stop-color:#00BCD4"/>
      <stop offset="100%" style="stop-color:#00838F"/>
    </linearGradient>
  </defs>
  <circle cx="100" cy="100" r="100" fill="url(#bg6)"/>
  <circle cx="100" cy="78" r="32" fill="#fff" opacity="0.9"/>
  <ellipse cx="100" cy="155" rx="48" ry="36" fill="#fff" opacity="0.9"/>
  <circle cx="89" cy="74" r="4" fill="#00838F"/>
  <circle cx="111" cy="74" r="4" fill="#00838F"/>
  <path d="M92 86 Q100 94 108 86" stroke="#00838F" stroke-width="2.5" fill="none" stroke-linecap="round"/>
  <path d="M58 62 Q68 42 100 48 Q132 42 142 62" stroke="#5c3a2e" stroke-width="5" fill="none" stroke-linecap="round"/>
  <path d="M58 62 Q55 90 68 85 Q80 80 85 62" stroke="#5c3a2e" stroke-width="4" fill="none" stroke-linecap="round"/>
  <path d="M142 62 Q145 90 132 85 Q120 80 115 62" stroke="#5c3a2e" stroke-width="4" fill="none" stroke-linecap="round"/>
  <circle cx="80" cy="82" r="5" fill="#4DD0E1" opacity="0.4"/>
  <circle cx="120" cy="82" r="5" fill="#4DD0E1" opacity="0.4"/>
</svg>